<?xml version="1.0" ?><!DOCTYPE svg  PUBLIC '-//W3C//DTD SVG 1.1//EN'  'http://www.w3.org/Graphics/SVG/1.1/DTD/svg11.dtd'><svg enable-background="new 0 0 1024 1024" height="1024px" id="Layer_1" version="1.1" viewBox="0 0 1024 1024" width="1024px" xml:space="preserve" xmlns="http://www.w3.org/2000/svg" xmlns:xlink="http://www.w3.org/1999/xlink"><g id="Background"><path d="M983.766,312.727c-25.785-60.972-62.694-115.728-109.705-162.744   C827.05,102.966,772.299,66.049,711.329,40.257C648.194,13.548,581.14,0.004,512,0c-69.104,0-136.155,13.54-199.289,40.243   c-60.969,25.787-115.721,62.699-162.735,109.71c-47.014,47.011-83.929,101.761-109.72,162.728   C13.548,375.814,0.004,442.865,0,511.97c-0.004,69.109,13.533,136.165,40.234,199.304   c25.785,60.973,62.696,115.728,109.707,162.743c47.011,47.018,101.762,83.935,162.732,109.727   c63.136,26.708,130.19,40.253,199.323,40.257h0.009c69.104,0,136.153-13.54,199.288-40.243   c60.969-25.787,115.72-62.699,162.733-109.709c47.013-47.01,83.929-101.76,109.72-162.728   c26.708-63.134,40.251-130.186,40.255-199.29C1024.004,442.921,1010.467,375.866,983.766,312.727z M512.004,976.328h-0.03   c-124.026-0.007-240.627-48.313-328.323-136.019C95.957,752.604,47.665,635.999,47.672,511.973   c0.015-256.016,208.312-464.3,464.356-464.3c124.026,0.007,240.626,48.312,328.32,136.017   c87.695,87.706,135.986,204.311,135.979,328.337C976.313,768.043,768.018,976.328,512.004,976.328z" fill="#262626"/></g><g id="Messenger"><path d="M270.976,817.853l13.291-127.182c-47.73-51.855-73.899-117.835-73.899-186.837   c0-76.343,31.531-148.05,88.785-201.91C356.069,248.379,431.66,218.891,512,218.891s155.931,29.488,212.849,83.033   c57.253,53.861,88.784,125.567,88.784,201.911c0,76.343-31.531,148.049-88.784,201.91C667.931,759.289,592.34,788.777,512,788.777   c-42.979,0-84.374-8.332-123.179-24.776L270.976,817.853z M512,258.891c-144.265,0-261.633,109.881-261.633,244.943   c0,61.56,24.511,120.417,69.018,165.729l6.604,6.722l-7.951,76.083l70.657-32.288l8.323,3.82   c35.968,16.507,74.652,24.876,114.983,24.876c144.265,0,261.633-109.882,261.633-244.942   C773.633,368.772,656.265,258.891,512,258.891z" fill="#262626"/><polygon fill="#262626" points="332.421,585.326 481.896,438.674 556.926,505.039 691.579,438.674 541.519,585.326    466.822,518.961  "/></g></svg>